<?xml version="1.0" encoding="UTF-8"?>
<svg id="Capa_1" data-name="Capa 1" xmlns="http://www.w3.org/2000/svg" version="1.1" viewBox="0 0 1000 1000">
  <defs>
    <style>
      .cls-1 {
        fill: #000;
      }

      .cls-1, .cls-2 {
        stroke-width: 0px;
      }

      .cls-2 {
        fill: #ff6700;
      }
    </style>
  </defs>
  <path class="cls-2" d="M1000,500C1009.5,1148.7-9.6,1148.7,0,500c-9.5-648.7,1009.5-648.7,1000,0Z"/>
  <g>
    <path class="cls-1" d="M120.1,830.6l1.9-422.5c0-13.7-10-24.9-22.6-25l-69.1-.3c-12.5,0-22.6-11.2-22.6-25l.5-124c0-13.7,10.3-24.8,22.8-24.8l385.5,1.7c12.8,0,23.1,11.8,22.6,25.9-4.8,116.7,43.3,158.6-89.4,149.5-13-.9-24,10.4-24.1,24.7-.4,83.7-1.5,339.6-1.9,420.6,0,13.7-10.3,24.8-22.8,24.8l-158.3-.7c-12.5,0-22.6-11.2-22.6-25Z"/>
    <path class="cls-1" d="M963.1,213.2h6.7c18.9.1,31.3,21.9,22.9,40.6l-94.4,211c-6.8,15.1,0,33.2,14.4,39,44.6,17.8,76.6,64.2,74.3,119.9-4.1,240.5,45.6,247.1-177,235.9-13.8-.7-24.5-13.2-24.5-28.3.3-79.2,30.4-237.1-51-239.8s-25.7,11.6-26.3,27c-8.5,214.9,64.4,257.1-171.9,240.5-13.5-.9-24.1-13.3-24-28.2.5-104.4,2.2-487.5,2.6-592.7,0-15.1,10.9-27.4,24.6-28,158.2-7.2,175.7-2.1,174,85.8-.6,32,39.9,40.2,49.8,10.1,25.4-77.6,49.8-112.1,199.8-92.8"/>
  </g>
</svg>