<?xml version="1.0" encoding="UTF-8"?>
<svg id="Capa_1" data-name="Capa 1" xmlns="http://www.w3.org/2000/svg" version="1.1" viewBox="0 0 1000 1000">
  <defs>
    <style>
      .cls-1 {
        fill: #fff;
      }

      .cls-1, .cls-2 {
        stroke-width: 0px;
      }

      .cls-2 {
        fill: #fa0;
      }
    </style>
  </defs>
  <rect class="cls-2" x=".5" width="999.5" height="999.5" rx="217.8" ry="217.8"/>
  <g>
    <path class="cls-1" d="M137.3,768.8l-88.7-85.3c-15.5-14.9-16.9-38.7-3.1-53.1l210.2-218.5c13.8-14.4,37.6-13.9,53.2,1l88.7,85.3c15.5,14.9,16.9,38.7,3.1,53.1l-15.2,15.8c-13.8,14.4-12.5,38.1,3.1,53.1l126,121.2c15.5,14.9,16.9,38.7,3.1,53.1l-79.7,82.8c-13.8,14.4-37.6,13.9-53.2-1l-126-121.2c-15.5-14.9-39.3-15.4-53.2-1l-15.2,15.8c-13.8,14.4-37.6,13.9-53.2-1Z"/>
    <path class="cls-1" d="M472.4,237.4l49.6,47.7c20.9,20.1,54,9.5,56.3-18,.8-10.2,0-20.7-2.8-31.6-5.8-23-18.7-46.3-38.9-69.9-11.7-13.7-11.9-33.1-.3-45.1l87.4-90.9c13-13.6,35.8-12.4,49.5,2.6,26.3,28.7,45.8,56.2,58.4,82.7,11.3,23.6,18.1,47.8,20.3,72.6,1.6,18,16.9,32.7,35,33.5,53.3,2.3,107.9,24.2,164,65.6,17.2,12.7,20.3,36.7,6.6,51l-94.3,98c-11.4,11.9-30.7,12.7-44.7,1.8-42.2-32.7-78.8-48.6-109.8-47.7-29.2.9-40.7,36.1-18.8,57.2l59.1,56.9c14,13.4,15.2,34.8,2.8,47.8l-84.5,87.8c-12.4,12.9-33.9,12.5-47.8-.9l-276.6-266.2c-14-13.4-15.2-34.8-2.8-47.8l84.5-87.8c12.4-12.9,33.9-12.5,47.8.9Z"/>
  </g>
  <g>
    <path class="cls-1" d="M466,929.9l10.8-26.2c3.3,4.5,7.3,7.9,12,10.4,4.7,2.5,9.3,3.8,13.8,3.8s5.1-.6,6.8-1.9c1.7-1.2,2.5-2.8,2.5-4.8s-.7-3.6-2.1-5c-1.4-1.4-5.2-3-11.4-4.8-6.2-1.8-11.3-3.7-15.2-5.8-4-2.1-7.2-5.2-9.9-9.3-2.6-4.1-3.9-8.5-3.9-13.4,0-9.3,4-16.5,12.1-21.7,8-5.1,19.3-7.7,33.8-7.7s30.3,2.7,41.9,8l-11.5,23.8c-7.6-6.8-14.9-10.2-22-10.2s-4.2.5-5.7,1.6c-1.5,1-2.2,2.4-2.2,4s.7,3.6,2.2,5,5.4,2.9,11.8,4.5c6.5,1.6,11.9,3.4,16.1,5.5,4.2,2.1,7.6,5.2,10.1,9.3,2.5,4.1,3.8,8.9,3.8,14.2,0,9.6-3.9,17.2-11.7,22.8-7.8,5.6-18,8.3-30.4,8.3s-34.1-3.5-51.7-10.5Z"/>
    <path class="cls-1" d="M620,820.5v37.2c7.4-8.6,16.9-13,28.5-13s19.1,3.1,25.2,9.3c6.2,6.2,9.2,14.9,9.2,25.9v59h-45.6v-54c0-7.9-3-11.8-9.1-11.8s-5.5,1.2-8.3,3.6v62.2h-48.3v-118.5h48.3Z"/>
    <path class="cls-1" d="M748.9,940.4c-14.9,0-27.1-4.5-36.8-13.4-9.7-8.9-14.5-20.6-14.5-34.9s4.8-26,14.3-35,21.8-13.5,37-13.5,27.6,4.5,37.2,13.5c9.5,9,14.3,20.7,14.3,35s-4.8,25.9-14.3,34.9c-9.5,9-21.9,13.4-37.2,13.4ZM748.9,880.5c-3.1,0-5.7,1-7.6,3-2,2-2.9,4.6-2.9,7.7s1,5.7,2.9,7.7c2,2,4.5,3,7.6,3s5.7-1,7.7-3c2-2,3-4.5,3-7.7s-1-5.8-3-7.8-4.6-3-7.7-3Z"/>
    <path class="cls-1" d="M864.1,845.5v7.1c7.2-5.3,15-7.9,23.2-7.9,11.8,0,21.6,4.4,29.5,13.1,7.9,8.7,11.8,19.7,11.8,32.9s-4.2,26-12.7,35.2c-8.5,9.2-19.2,13.8-32.3,13.8s-13.1-1.4-19.5-4.1v29.6h-48.2v-119.7h48.2ZM864.1,886.7v16.8c2.8,1.5,5.6,2.3,8.3,2.3s5.2-1.1,7-3.2c1.8-2.1,2.7-4.9,2.7-8.5s-.9-6.3-2.7-8.5c-1.8-2.2-4.2-3.3-7-3.3s-6,1.5-8.3,4.4Z"/>
  </g>
</svg>